<svg width="178" height="58" viewBox="0 0 178 58" fill="none" xmlns="http://www.w3.org/2000/svg">
<path d="M0 10C0 4.47715 4.47715 0 10 0H168C173.523 0 178 4.47715 178 10V48C178 53.5229 173.523 58 168 58H10C4.47715 58 0 53.5229 0 48V10Z" fill="#0A1F32"/>
<path d="M39.5528 27.4545C39.5528 28.8523 39.2971 30.054 38.7858 31.0597C38.2744 32.0611 37.5734 32.8324 36.6828 33.3736C35.7964 33.9105 34.7886 34.179 33.6594 34.179C32.5258 34.179 31.5138 33.9105 30.6231 33.3736C29.7368 32.8324 29.0379 32.0589 28.5265 31.0533C28.0152 30.0476 27.7595 28.848 27.7595 27.4545C27.7595 26.0568 28.0152 24.8572 28.5265 23.8558C29.0379 22.8501 29.7368 22.0788 30.6231 21.5419C31.5138 21.0007 32.5258 20.7301 33.6594 20.7301C34.7886 20.7301 35.7964 21.0007 36.6828 21.5419C37.5734 22.0788 38.2744 22.8501 38.7858 23.8558C39.2971 24.8572 39.5528 26.0568 39.5528 27.4545ZM37.5969 27.4545C37.5969 26.3892 37.4243 25.4922 37.0791 24.7635C36.7382 24.0305 36.2694 23.4766 35.6729 23.1016C35.0805 22.7223 34.4094 22.5327 33.6594 22.5327C32.9051 22.5327 32.2318 22.7223 31.6395 23.1016C31.0471 23.4766 30.5784 24.0305 30.2332 24.7635C29.8923 25.4922 29.7219 26.3892 29.7219 27.4545C29.7219 28.5199 29.8923 29.419 30.2332 30.152C30.5784 30.8807 31.0471 31.4347 31.6395 31.8139C32.2318 32.1889 32.9051 32.3764 33.6594 32.3764C34.4094 32.3764 35.0805 32.1889 35.6729 31.8139C36.2694 31.4347 36.7382 30.8807 37.0791 30.152C37.4243 29.419 37.5969 28.5199 37.5969 27.4545ZM41.2803 31.4048H43.2362C43.2618 31.8054 43.4429 32.1143 43.7796 32.3317C44.1205 32.549 44.5615 32.6577 45.1027 32.6577C45.6524 32.6577 46.1212 32.5405 46.509 32.3061C46.8968 32.0675 47.0906 31.6989 47.0906 31.2003C47.0906 30.902 47.0161 30.642 46.8669 30.4205C46.722 30.1946 46.5154 30.0199 46.2469 29.8963C45.9827 29.7727 45.6695 29.7109 45.3073 29.7109H43.7093V28.2088H45.3073C45.8485 28.2088 46.2533 28.0852 46.5218 27.8381C46.7902 27.5909 46.9244 27.282 46.9244 26.9112C46.9244 26.5107 46.7796 26.1889 46.4898 25.946C46.2043 25.6989 45.8058 25.5753 45.2945 25.5753C44.7746 25.5753 44.3421 25.6925 43.9969 25.9268C43.6517 26.157 43.4706 26.4553 43.4536 26.8217H41.5232C41.536 26.272 41.7021 25.7905 42.0218 25.3771C42.3456 24.9595 42.7803 24.6357 43.3257 24.4055C43.8754 24.1712 44.4997 24.054 45.1986 24.054C45.9273 24.054 46.558 24.1712 47.0906 24.4055C47.6233 24.6399 48.0345 24.9638 48.3243 25.3771C48.6183 25.7905 48.7654 26.2656 48.7654 26.8026C48.7654 27.3437 48.6034 27.7869 48.2796 28.1321C47.96 28.473 47.5423 28.718 47.0267 28.8672V28.9695C47.406 28.995 47.7426 29.1101 48.0367 29.3146C48.3307 29.5192 48.5608 29.7898 48.727 30.1264C48.8932 30.4631 48.9763 30.8445 48.9763 31.2706C48.9763 31.8714 48.8101 32.3913 48.4777 32.8303C48.1496 33.2692 47.6936 33.608 47.1098 33.8466C46.5303 34.081 45.8676 34.1982 45.1219 34.1982C44.3975 34.1982 43.7476 34.0852 43.1723 33.8594C42.6013 33.6293 42.1475 33.3054 41.8108 32.8878C41.4784 32.4702 41.3016 31.9759 41.2803 31.4048ZM55.1814 34.1982C54.214 34.1982 53.3809 33.9915 52.6821 33.5781C51.9875 33.1605 51.4506 32.5746 51.0713 31.8203C50.6963 31.0618 50.5088 30.1733 50.5088 29.1548C50.5088 28.1491 50.6963 27.2628 51.0713 26.4957C51.4506 25.7287 51.979 25.13 52.6565 24.6996C53.3383 24.2692 54.1352 24.054 55.0471 24.054C55.6011 24.054 56.1381 24.1456 56.6579 24.3288C57.1778 24.5121 57.6444 24.7997 58.0578 25.1918C58.4711 25.5838 58.7971 26.093 59.0358 26.7195C59.2744 27.3416 59.3937 28.098 59.3937 28.9886V29.6662H51.589V28.2344H57.5209C57.5209 27.7315 57.4186 27.2862 57.214 26.8984C57.0095 26.5064 56.7219 26.1974 56.3511 25.9716C55.9846 25.7457 55.5542 25.6328 55.0599 25.6328C54.523 25.6328 54.0542 25.7649 53.6537 26.0291C53.2574 26.2891 52.9506 26.63 52.7332 27.0518C52.5202 27.4695 52.4136 27.9233 52.4136 28.4134V29.532C52.4136 30.1882 52.5287 30.7464 52.7588 31.2067C52.9932 31.6669 53.3192 32.0185 53.7368 32.2614C54.1544 32.5 54.6423 32.6193 55.2006 32.6193C55.5628 32.6193 55.893 32.5682 56.1913 32.4659C56.4896 32.3594 56.7474 32.2017 56.9648 31.9929C57.1821 31.7841 57.3483 31.5263 57.4633 31.2195L59.2723 31.5455C59.1274 32.0781 58.8675 32.5447 58.4925 32.9453C58.1217 33.3416 57.6551 33.6506 57.0926 33.8722C56.5344 34.0895 55.8973 34.1982 55.1814 34.1982ZM61.5143 37.6818V24.1818H63.3808V25.7734H63.5406C63.6514 25.5689 63.8112 25.3324 64.02 25.0639C64.2288 24.7955 64.5186 24.5611 64.8893 24.3608C65.26 24.1562 65.7501 24.054 66.3595 24.054C67.1521 24.054 67.8595 24.2543 68.4816 24.6548C69.1038 25.0554 69.5917 25.6328 69.9454 26.3871C70.3034 27.1413 70.4823 28.049 70.4823 29.1101C70.4823 30.1712 70.3055 31.081 69.9518 31.8395C69.5981 32.5937 69.1123 33.1754 68.4944 33.5845C67.8765 33.9893 67.1713 34.1918 66.3786 34.1918C65.782 34.1918 65.2941 34.0916 64.9149 33.8913C64.5399 33.6911 64.2458 33.4567 64.0328 33.1882C63.8197 32.9197 63.6556 32.6811 63.5406 32.4723H63.4255V37.6818H61.5143ZM63.3872 29.0909C63.3872 29.7812 63.4873 30.3864 63.6876 30.9062C63.8879 31.4261 64.1776 31.8331 64.5569 32.1271C64.9362 32.4169 65.4007 32.5618 65.9504 32.5618C66.5214 32.5618 66.9987 32.4105 67.3822 32.108C67.7657 31.8011 68.0555 31.3857 68.2515 30.8615C68.4518 30.3374 68.5519 29.7472 68.5519 29.0909C68.5519 28.4432 68.4539 27.8615 68.2579 27.3459C68.0661 26.8303 67.7764 26.4233 67.3886 26.125C67.0051 25.8267 66.5257 25.6776 65.9504 25.6776C65.3964 25.6776 64.9276 25.8203 64.5441 26.1058C64.1649 26.3913 63.8772 26.7898 63.6812 27.3011C63.4852 27.8125 63.3872 28.4091 63.3872 29.0909ZM76.7593 34.1982C75.8389 34.1982 75.0356 33.9872 74.3495 33.5653C73.6634 33.1435 73.1308 32.5533 72.7515 31.7947C72.3722 31.0362 72.1826 30.1499 72.1826 29.1357C72.1826 28.1172 72.3722 27.2266 72.7515 26.4638C73.1308 25.701 73.6634 25.1087 74.3495 24.6868C75.0356 24.2649 75.8389 24.054 76.7593 24.054C77.6798 24.054 78.483 24.2649 79.1691 24.6868C79.8552 25.1087 80.3879 25.701 80.7671 26.4638C81.1464 27.2266 81.336 28.1172 81.336 29.1357C81.336 30.1499 81.1464 31.0362 80.7671 31.7947C80.3879 32.5533 79.8552 33.1435 79.1691 33.5653C78.483 33.9872 77.6798 34.1982 76.7593 34.1982ZM76.7657 32.5938C77.3623 32.5938 77.8566 32.4361 78.2487 32.1207C78.6407 31.8054 78.9305 31.3857 79.118 30.8615C79.3097 30.3374 79.4056 29.7599 79.4056 29.1293C79.4056 28.5028 79.3097 27.9276 79.118 27.4034C78.9305 26.875 78.6407 26.451 78.2487 26.1314C77.8566 25.8118 77.3623 25.652 76.7657 25.652C76.1649 25.652 75.6663 25.8118 75.27 26.1314C74.8779 26.451 74.586 26.875 74.3943 27.4034C74.2068 27.9276 74.113 28.5028 74.113 29.1293C74.113 29.7599 74.2068 30.3374 74.3943 30.8615C74.586 31.3857 74.8779 31.8054 75.27 32.1207C75.6663 32.4361 76.1649 32.5938 76.7657 32.5938ZM88.3865 34V20.9091H96.5491V22.6094H90.3616V26.1889H93.2892C94.2607 26.1889 95.0853 26.3466 95.7629 26.6619C96.4447 26.9773 96.9646 27.4226 97.3225 27.9979C97.6847 28.5732 97.8659 29.2507 97.8659 30.0305C97.8659 30.8104 97.6847 31.4986 97.3225 32.0952C96.9646 32.6918 96.4447 33.1584 95.7629 33.495C95.0853 33.8317 94.2607 34 93.2892 34H88.3865ZM90.3616 32.3381H93.2892C93.8517 32.3381 94.3268 32.2273 94.7146 32.0057C95.1066 31.7841 95.4028 31.4964 95.6031 31.1428C95.8076 30.7891 95.9099 30.4098 95.9099 30.005C95.9099 29.4169 95.684 28.9119 95.2323 28.4901C94.7806 28.0639 94.1329 27.8509 93.2892 27.8509H90.3616V32.3381ZM102.903 34.2173C102.281 34.2173 101.718 34.1023 101.215 33.8722C100.712 33.6378 100.314 33.299 100.02 32.8558C99.7302 32.4126 99.5853 31.8693 99.5853 31.2259C99.5853 30.6719 99.6919 30.2159 99.9049 29.858C100.118 29.5 100.406 29.2166 100.768 29.0078C101.13 28.799 101.535 28.6413 101.982 28.5348C102.43 28.4283 102.886 28.3473 103.35 28.2919C103.938 28.2237 104.416 28.1683 104.782 28.1257C105.149 28.0788 105.415 28.0043 105.581 27.902C105.747 27.7997 105.83 27.6335 105.83 27.4034V27.3587C105.83 26.8004 105.673 26.3679 105.357 26.0611C105.046 25.7543 104.582 25.6009 103.964 25.6009C103.32 25.6009 102.813 25.7436 102.443 26.0291C102.076 26.3104 101.823 26.6236 101.682 26.9688L99.8857 26.5597C100.099 25.9631 100.41 25.4815 100.819 25.1151C101.232 24.7443 101.707 24.4759 102.244 24.3097C102.781 24.1392 103.346 24.054 103.938 24.054C104.33 24.054 104.746 24.1009 105.185 24.1946C105.628 24.2841 106.041 24.4503 106.425 24.6932C106.813 24.9361 107.13 25.2834 107.377 25.7351C107.624 26.1825 107.748 26.7642 107.748 27.4801V34H105.881V32.6577H105.805C105.681 32.9048 105.496 33.1477 105.249 33.3864C105.002 33.625 104.684 33.8232 104.296 33.9808C103.908 34.1385 103.444 34.2173 102.903 34.2173ZM103.318 32.6832C103.847 32.6832 104.298 32.5788 104.673 32.37C105.053 32.1612 105.34 31.8885 105.536 31.5518C105.737 31.2109 105.837 30.8466 105.837 30.4588V29.1932C105.769 29.2614 105.636 29.3253 105.44 29.3849C105.249 29.4403 105.029 29.4893 104.782 29.532C104.535 29.5703 104.294 29.6065 104.06 29.6406C103.825 29.6705 103.629 29.696 103.472 29.7173C103.101 29.7642 102.762 29.843 102.455 29.9538C102.153 30.0646 101.91 30.2244 101.727 30.4332C101.548 30.6378 101.458 30.9105 101.458 31.2514C101.458 31.7244 101.633 32.0824 101.982 32.3253C102.332 32.5639 102.777 32.6832 103.318 32.6832ZM112.166 31.3217L116.494 24.1818H118.552V34H116.679V26.8537L112.371 34H110.294V24.1818H112.166V31.3217ZM115.676 20.858H117.248C117.248 21.5781 116.992 22.1641 116.481 22.6158C115.974 23.0632 115.288 23.2869 114.423 23.2869C113.562 23.2869 112.878 23.0632 112.371 22.6158C111.864 22.1641 111.61 21.5781 111.61 20.858H113.176C113.176 21.1776 113.27 21.4609 113.458 21.7081C113.645 21.951 113.967 22.0724 114.423 22.0724C114.87 22.0724 115.19 21.951 115.382 21.7081C115.578 21.4652 115.676 21.1818 115.676 20.858ZM121.122 34V24.1818H123.033V28.2983H123.953L127.194 24.1818H129.559L125.756 28.9567L129.604 34H127.233L124.273 30.0753H123.033V34H121.122ZM133.946 34.2173C133.324 34.2173 132.761 34.1023 132.258 33.8722C131.755 33.6378 131.357 33.299 131.063 32.8558C130.773 32.4126 130.628 31.8693 130.628 31.2259C130.628 30.6719 130.735 30.2159 130.948 29.858C131.161 29.5 131.449 29.2166 131.811 29.0078C132.173 28.799 132.578 28.6413 133.025 28.5348C133.473 28.4283 133.929 28.3473 134.393 28.2919C134.981 28.2237 135.459 28.1683 135.825 28.1257C136.191 28.0788 136.458 28.0043 136.624 27.902C136.79 27.7997 136.873 27.6335 136.873 27.4034V27.3587C136.873 26.8004 136.716 26.3679 136.4 26.0611C136.089 25.7543 135.625 25.6009 135.007 25.6009C134.363 25.6009 133.856 25.7436 133.486 26.0291C133.119 26.3104 132.866 26.6236 132.725 26.9688L130.929 26.5597C131.142 25.9631 131.453 25.4815 131.862 25.1151C132.275 24.7443 132.75 24.4759 133.287 24.3097C133.824 24.1392 134.389 24.054 134.981 24.054C135.373 24.054 135.789 24.1009 136.228 24.1946C136.671 24.2841 137.084 24.4503 137.468 24.6932C137.856 24.9361 138.173 25.2834 138.42 25.7351C138.667 26.1825 138.791 26.7642 138.791 27.4801V34H136.924V32.6577H136.848C136.724 32.9048 136.539 33.1477 136.292 33.3864C136.044 33.625 135.727 33.8232 135.339 33.9808C134.951 34.1385 134.487 34.2173 133.946 34.2173ZM134.361 32.6832C134.89 32.6832 135.341 32.5788 135.716 32.37C136.096 32.1612 136.383 31.8885 136.579 31.5518C136.78 31.2109 136.88 30.8466 136.88 30.4588V29.1932C136.812 29.2614 136.679 29.3253 136.483 29.3849C136.292 29.4403 136.072 29.4893 135.825 29.532C135.578 29.5703 135.337 29.6065 135.103 29.6406C134.868 29.6705 134.672 29.696 134.515 29.7173C134.144 29.7642 133.805 29.843 133.498 29.9538C133.196 30.0646 132.953 30.2244 132.77 30.4332C132.591 30.6378 132.501 30.9105 132.501 31.2514C132.501 31.7244 132.676 32.0824 133.025 32.3253C133.375 32.5639 133.82 32.6832 134.361 32.6832ZM140.563 34L140.557 32.3445H140.908C141.181 32.3445 141.409 32.2869 141.592 32.1719C141.78 32.0526 141.933 31.8523 142.052 31.571C142.172 31.2898 142.263 30.902 142.327 30.4077C142.391 29.9091 142.438 29.2827 142.468 28.5284L142.641 24.1818H149.493V34H147.62V25.831H144.411L144.258 29.1676C144.219 29.9773 144.136 30.6847 144.008 31.2898C143.885 31.8949 143.704 32.3999 143.465 32.8047C143.226 33.2053 142.92 33.5057 142.545 33.706C142.17 33.902 141.714 34 141.177 34H140.563Z" fill="white"/>
</svg>
