<svg width="178" height="58" viewBox="0 0 178 58" fill="none" xmlns="http://www.w3.org/2000/svg">
<path d="M0 10C0 4.47716 4.47715 0 10 0H167.5C173.023 0 177.5 4.47715 177.5 10V47.5714C177.5 53.0943 173.023 57.5714 167.5 57.5714H10C4.47715 57.5714 0 53.0943 0 47.5714V10Z" fill="#0A1F32"/>
<path d="M62.4236 34V20.9091H67.2176C68.1466 20.9091 68.9157 21.0625 69.5251 21.3693C70.1345 21.6719 70.5905 22.0831 70.893 22.603C71.1956 23.1186 71.3469 23.7003 71.3469 24.348C71.3469 24.8935 71.2467 25.3537 71.0464 25.7287C70.8461 26.0994 70.5777 26.3977 70.241 26.6236C69.9086 26.8452 69.5422 27.0071 69.1416 27.1094V27.2372C69.5763 27.2585 70.0003 27.3991 70.4136 27.6591C70.8312 27.9148 71.1764 28.2791 71.4491 28.7521C71.7219 29.2251 71.8582 29.8004 71.8582 30.478C71.8582 31.147 71.7006 31.7479 71.3852 32.2805C71.0741 32.8089 70.5926 33.2287 69.9406 33.5398C69.2886 33.8466 68.4555 34 67.4413 34H62.4236ZM64.3987 32.3061H67.2496C68.1956 32.3061 68.8731 32.1229 69.2822 31.7564C69.6913 31.3899 69.8959 30.9318 69.8959 30.3821C69.8959 29.9687 69.7915 29.5895 69.5827 29.2443C69.3738 28.8991 69.0756 28.6243 68.6878 28.4197C68.3042 28.2152 67.8483 28.1129 67.3199 28.1129H64.3987V32.3061ZM64.3987 26.5724H67.045C67.4882 26.5724 67.8866 26.4872 68.2403 26.3168C68.5983 26.1463 68.8817 25.9077 69.0905 25.6009C69.3035 25.2898 69.4101 24.9233 69.4101 24.5014C69.4101 23.9602 69.2204 23.5064 68.8412 23.1399C68.4619 22.7734 67.8802 22.5902 67.0961 22.5902H64.3987V26.5724ZM75.9204 31.3217L80.2478 24.1818H82.306V34H80.4332V26.8537L76.1249 34H74.0475V24.1818H75.9204V31.3217ZM83.9168 36.8317V32.3445H84.7158C84.9204 32.157 85.093 31.9332 85.2336 31.6733C85.3785 31.4134 85.4999 31.1044 85.5979 30.7464C85.7002 30.3885 85.7854 29.9709 85.8536 29.4936C85.9218 29.0121 85.9814 28.4624 86.0326 27.8445L86.3394 24.1818H93.0127V32.3445H94.5212V36.8317H92.6547V34H85.8089V36.8317H83.9168ZM86.7613 32.3445H91.1462V25.8182H88.0525L87.8479 27.8445C87.7499 28.8757 87.6263 29.7706 87.4772 30.5291C87.328 31.2834 87.0894 31.8885 86.7613 32.3445ZM100.621 34.1982C99.6535 34.1982 98.8204 33.9915 98.1215 33.5781C97.4269 33.1605 96.89 32.5746 96.5107 31.8203C96.1357 31.0618 95.9482 30.1733 95.9482 29.1548C95.9482 28.1491 96.1357 27.2628 96.5107 26.4957C96.89 25.7287 97.4184 25.13 98.096 24.6996C98.7778 24.2692 99.5747 24.054 100.487 24.054C101.041 24.054 101.578 24.1456 102.097 24.3288C102.617 24.5121 103.084 24.7997 103.497 25.1918C103.911 25.5838 104.237 26.093 104.475 26.7195C104.714 27.3416 104.833 28.098 104.833 28.9886V29.6662H97.0285V28.2344H102.96C102.96 27.7315 102.858 27.2862 102.653 26.8984C102.449 26.5064 102.161 26.1974 101.791 25.9716C101.424 25.7457 100.994 25.6328 100.499 25.6328C99.9624 25.6328 99.4937 25.7649 99.0931 26.0291C98.6968 26.2891 98.39 26.63 98.1727 27.0518C97.9596 27.4695 97.8531 27.9233 97.8531 28.4134V29.532C97.8531 30.1882 97.9681 30.7464 98.1982 31.2067C98.4326 31.6669 98.7586 32.0185 99.1762 32.2614C99.5938 32.5 100.082 32.6193 100.64 32.6193C101.002 32.6193 101.332 32.5682 101.631 32.4659C101.929 32.3594 102.187 32.2017 102.404 31.9929C102.622 31.7841 102.788 31.5263 102.903 31.2195L104.712 31.5455C104.567 32.0781 104.307 32.5447 103.932 32.9453C103.561 33.3416 103.095 33.6506 102.532 33.8722C101.974 34.0895 101.337 34.1982 100.621 34.1982ZM111.089 34.1982C110.169 34.1982 109.366 33.9872 108.68 33.5653C107.994 33.1435 107.461 32.5533 107.082 31.7947C106.702 31.0362 106.513 30.1499 106.513 29.1357C106.513 28.1172 106.702 27.2266 107.082 26.4638C107.461 25.701 107.994 25.1087 108.68 24.6868C109.366 24.2649 110.169 24.054 111.089 24.054C112.01 24.054 112.813 24.2649 113.499 24.6868C114.185 25.1087 114.718 25.701 115.097 26.4638C115.476 27.2266 115.666 28.1172 115.666 29.1357C115.666 30.1499 115.476 31.0362 115.097 31.7947C114.718 32.5533 114.185 33.1435 113.499 33.5653C112.813 33.9872 112.01 34.1982 111.089 34.1982ZM111.096 32.5938C111.692 32.5938 112.187 32.4361 112.579 32.1207C112.971 31.8054 113.261 31.3857 113.448 30.8615C113.64 30.3374 113.736 29.7599 113.736 29.1293C113.736 28.5028 113.64 27.9276 113.448 27.4034C113.261 26.875 112.971 26.451 112.579 26.1314C112.187 25.8118 111.692 25.652 111.096 25.652C110.495 25.652 109.996 25.8118 109.6 26.1314C109.208 26.451 108.916 26.875 108.724 27.4034C108.537 27.9276 108.443 28.5028 108.443 29.1293C108.443 29.7599 108.537 30.3374 108.724 30.8615C108.916 31.3857 109.208 31.8054 109.6 32.1207C109.996 32.4361 110.495 32.5938 111.096 32.5938Z" fill="white"/>
</svg>
