<svg width="178" height="58" viewBox="0 0 178 58" fill="none" xmlns="http://www.w3.org/2000/svg">
<path d="M0.25 10.4286C0.25 4.90572 4.72715 0.428558 10.25 0.428558H167.7C173.223 0.428558 177.7 4.90571 177.7 10.4286V48C177.7 53.5228 173.223 58 167.7 58H10.25C4.72715 58 0.25 53.5228 0.25 48V10.4286Z" fill="#0A1F32"/>
<path d="M77.0069 27.4545C77.0069 28.8523 76.7512 30.054 76.2399 31.0597C75.7285 32.0611 75.0275 32.8324 74.1369 33.3736C73.2505 33.9105 72.2427 34.179 71.1135 34.179C69.9799 34.179 68.9679 33.9105 68.0772 33.3736C67.1909 32.8324 66.492 32.0589 65.9806 31.0533C65.4693 30.0476 65.2136 28.848 65.2136 27.4545C65.2136 26.0568 65.4693 24.8572 65.9806 23.8558C66.492 22.8501 67.1909 22.0788 68.0772 21.5419C68.9679 21.0007 69.9799 20.7301 71.1135 20.7301C72.2427 20.7301 73.2505 21.0007 74.1369 21.5419C75.0275 22.0788 75.7285 22.8501 76.2399 23.8558C76.7512 24.8572 77.0069 26.0568 77.0069 27.4545ZM75.051 27.4545C75.051 26.3892 74.8784 25.4922 74.5332 24.7635C74.1923 24.0305 73.7235 23.4766 73.127 23.1016C72.5346 22.7223 71.8635 22.5327 71.1135 22.5327C70.3592 22.5327 69.6859 22.7223 69.0936 23.1016C68.5012 23.4766 68.0325 24.0305 67.6873 24.7635C67.3464 25.4922 67.176 26.3892 67.176 27.4545C67.176 28.5199 67.3464 29.419 67.6873 30.152C68.0325 30.8807 68.5012 31.4347 69.0936 31.8139C69.6859 32.1889 70.3592 32.3764 71.1135 32.3764C71.8635 32.3764 72.5346 32.1889 73.127 31.8139C73.7235 31.4347 74.1923 30.8807 74.5332 30.152C74.8784 29.419 75.051 28.5199 75.051 27.4545ZM90.7338 28.2663V29.9219H85.4157V28.2663H90.7338ZM85.9526 24.1818V34H84.0797V24.1818H85.9526ZM92.0698 24.1818V34H90.2033V24.1818H92.0698ZM97.4838 34.2173C96.8617 34.2173 96.2992 34.1023 95.7963 33.8722C95.2935 33.6378 94.8951 33.299 94.601 32.8558C94.3113 32.4126 94.1664 31.8693 94.1664 31.2259C94.1664 30.6719 94.2729 30.2159 94.486 29.858C94.699 29.5 94.9867 29.2166 95.3489 29.0078C95.7111 28.799 96.1159 28.6413 96.5634 28.5348C97.0108 28.4283 97.4668 28.3473 97.9313 28.2919C98.5194 28.2237 98.9966 28.1683 99.3631 28.1257C99.7296 28.0788 99.9959 28.0043 100.162 27.902C100.328 27.7997 100.411 27.6335 100.411 27.4034V27.3587C100.411 26.8004 100.254 26.3679 99.9384 26.0611C99.6273 25.7543 99.1628 25.6009 98.5449 25.6009C97.9015 25.6009 97.3944 25.7436 97.0236 26.0291C96.6571 26.3104 96.4036 26.6236 96.263 26.9688L94.4668 26.5597C94.6799 25.9631 94.9909 25.4815 95.4 25.1151C95.8134 24.7443 96.2885 24.4759 96.8255 24.3097C97.3624 24.1392 97.927 24.054 98.5194 24.054C98.9114 24.054 99.3269 24.1009 99.7658 24.1946C100.209 24.2841 100.622 24.4503 101.006 24.6932C101.394 24.9361 101.711 25.2834 101.958 25.7351C102.205 26.1825 102.329 26.7642 102.329 27.4801V34H100.463V32.6577H100.386C100.262 32.9048 100.077 33.1477 99.8297 33.3864C99.5826 33.625 99.2651 33.8232 98.8773 33.9808C98.4895 34.1385 98.025 34.2173 97.4838 34.2173ZM97.8993 32.6832C98.4277 32.6832 98.8794 32.5788 99.2544 32.37C99.6337 32.1612 99.9213 31.8885 100.117 31.5518C100.318 31.2109 100.418 30.8466 100.418 30.4588V29.1932C100.35 29.2614 100.218 29.3253 100.021 29.3849C99.8297 29.4403 99.6103 29.4893 99.3631 29.532C99.1159 29.5703 98.8752 29.6065 98.6408 29.6406C98.4064 29.6705 98.2104 29.696 98.0527 29.7173C97.682 29.7642 97.3432 29.843 97.0364 29.9538C96.7338 30.0646 96.4909 30.2244 96.3077 30.4332C96.1287 30.6378 96.0392 30.9105 96.0392 31.2514C96.0392 31.7244 96.214 32.0824 96.5634 32.3253C96.9128 32.5639 97.3581 32.6832 97.8993 32.6832ZM109.01 34.1982C108.06 34.1982 107.242 33.983 106.556 33.5526C105.874 33.1179 105.35 32.5192 104.983 31.7564C104.617 30.9936 104.434 30.12 104.434 29.1357C104.434 28.1385 104.621 27.2585 104.996 26.4957C105.371 25.7287 105.9 25.13 106.581 24.6996C107.263 24.2692 108.066 24.054 108.991 24.054C109.737 24.054 110.402 24.1925 110.985 24.4695C111.569 24.7422 112.04 25.1257 112.398 25.62C112.76 26.1143 112.975 26.6918 113.044 27.3523H111.184C111.081 26.892 110.847 26.4957 110.48 26.1634C110.118 25.831 109.632 25.6648 109.023 25.6648C108.49 25.6648 108.024 25.8054 107.623 26.0866C107.227 26.3636 106.918 26.7599 106.696 27.2756C106.475 27.7869 106.364 28.392 106.364 29.0909C106.364 29.8068 106.473 30.4247 106.69 30.9446C106.907 31.4645 107.214 31.8672 107.61 32.1527C108.011 32.4382 108.482 32.581 109.023 32.581C109.385 32.581 109.713 32.5149 110.007 32.3828C110.306 32.2464 110.555 32.0526 110.755 31.8011C110.96 31.5497 111.103 31.2472 111.184 30.8935H113.044C112.975 31.5284 112.769 32.0952 112.424 32.5938C112.078 33.0923 111.616 33.4844 111.037 33.7699C110.461 34.0554 109.786 34.1982 109.01 34.1982Z" fill="white"/>
</svg>
