<svg width="178" height="58" viewBox="0 0 178 58" fill="none" xmlns="http://www.w3.org/2000/svg">
<path d="M0.25 10.4286C0.25 4.90572 4.72715 0.428558 10.25 0.428558H167.75C173.273 0.428558 177.75 4.90571 177.75 10.4286V48C177.75 53.5228 173.273 58 167.75 58H10.25C4.72715 58 0.25 53.5228 0.25 48V10.4286Z" fill="#0A1F32"/>
<path d="M72.3944 22.4176H74.753C75.7502 22.4176 76.6344 22.6371 77.4057 23.076C78.1813 23.5107 78.7885 24.1222 79.2275 24.9105C79.6706 25.6946 79.8922 26.6065 79.8922 27.6463C79.8922 28.6776 79.6706 29.5831 79.2275 30.3629C78.7885 31.1428 78.1813 31.7521 77.4057 32.1911C76.6344 32.6257 75.7502 32.843 74.753 32.843H72.3944C71.3972 32.843 70.5108 32.6278 69.7353 32.1974C68.9597 31.7628 68.3503 31.1577 67.9071 30.3821C67.4682 29.6065 67.2488 28.701 67.2488 27.6655C67.2488 26.6214 67.4703 25.7053 67.9135 24.9169C68.3567 24.1286 68.964 23.5149 69.7353 23.076C70.5108 22.6371 71.3972 22.4176 72.3944 22.4176ZM72.3944 24.1243C71.7125 24.1243 71.1309 24.267 70.6493 24.5526C70.1678 24.8338 69.7992 25.2386 69.5435 25.767C69.2878 26.2955 69.16 26.9283 69.16 27.6655C69.16 28.3857 69.2878 29.0057 69.5435 29.5256C69.8034 30.0412 70.1742 30.4396 70.6557 30.7209C71.1373 30.9979 71.7168 31.1364 72.3944 31.1364H74.7594C75.437 31.1364 76.0144 30.9979 76.4917 30.7209C76.9732 30.4396 77.3397 30.0391 77.5911 29.5192C77.8468 28.995 77.9746 28.3707 77.9746 27.6463C77.9746 26.9176 77.8468 26.2912 77.5911 25.767C77.3397 25.2386 76.9732 24.8338 76.4917 24.5526C76.0144 24.267 75.437 24.1243 74.7594 24.1243H72.3944ZM74.5485 20.679V34.5369H72.6117V20.679H74.5485ZM86.3306 34.1982C85.4102 34.1982 84.6069 33.9872 83.9208 33.5653C83.2347 33.1435 82.7021 32.5533 82.3228 31.7947C81.9435 31.0362 81.7539 30.1499 81.7539 29.1357C81.7539 28.1172 81.9435 27.2266 82.3228 26.4638C82.7021 25.701 83.2347 25.1087 83.9208 24.6868C84.6069 24.2649 85.4102 24.054 86.3306 24.054C87.2511 24.054 88.0543 24.2649 88.7404 24.6868C89.4265 25.1087 89.9592 25.701 90.3384 26.4638C90.7177 27.2266 90.9073 28.1172 90.9073 29.1357C90.9073 30.1499 90.7177 31.0362 90.3384 31.7947C89.9592 32.5533 89.4265 33.1435 88.7404 33.5653C88.0543 33.9872 87.2511 34.1982 86.3306 34.1982ZM86.337 32.5938C86.9336 32.5938 87.4279 32.4361 87.82 32.1207C88.212 31.8054 88.5018 31.3857 88.6893 30.8615C88.881 30.3374 88.9769 29.7599 88.9769 29.1293C88.9769 28.5028 88.881 27.9276 88.6893 27.4034C88.5018 26.875 88.212 26.451 87.82 26.1314C87.4279 25.8118 86.9336 25.652 86.337 25.652C85.7362 25.652 85.2376 25.8118 84.8413 26.1314C84.4492 26.451 84.1573 26.875 83.9656 27.4034C83.7781 27.9276 83.6843 28.5028 83.6843 29.1293C83.6843 29.7599 83.7781 30.3374 83.9656 30.8615C84.1573 31.3857 84.4492 31.8054 84.8413 32.1207C85.2376 32.4361 85.7362 32.5938 86.337 32.5938ZM91.8581 25.831V24.1818H100.142V25.831H96.9398V34H95.0733V25.831H91.8581ZM105.842 34.1982C104.922 34.1982 104.119 33.9872 103.433 33.5653C102.746 33.1435 102.214 32.5533 101.835 31.7947C101.455 31.0362 101.266 30.1499 101.266 29.1357C101.266 28.1172 101.455 27.2266 101.835 26.4638C102.214 25.701 102.746 25.1087 103.433 24.6868C104.119 24.2649 104.922 24.054 105.842 24.054C106.763 24.054 107.566 24.2649 108.252 24.6868C108.938 25.1087 109.471 25.701 109.85 26.4638C110.229 27.2266 110.419 28.1172 110.419 29.1357C110.419 30.1499 110.229 31.0362 109.85 31.7947C109.471 32.5533 108.938 33.1435 108.252 33.5653C107.566 33.9872 106.763 34.1982 105.842 34.1982ZM105.849 32.5938C106.445 32.5938 106.94 32.4361 107.332 32.1207C107.724 31.8054 108.013 31.3857 108.201 30.8615C108.393 30.3374 108.489 29.7599 108.489 29.1293C108.489 28.5028 108.393 27.9276 108.201 27.4034C108.013 26.875 107.724 26.451 107.332 26.1314C106.94 25.8118 106.445 25.652 105.849 25.652C105.248 25.652 104.749 25.8118 104.353 26.1314C103.961 26.451 103.669 26.875 103.477 27.4034C103.29 27.9276 103.196 28.5028 103.196 29.1293C103.196 29.7599 103.29 30.3374 103.477 30.8615C103.669 31.3857 103.961 31.8054 104.353 32.1207C104.749 32.4361 105.248 32.5938 105.849 32.5938Z" fill="white"/>
</svg>
