<svg width="178" height="58" viewBox="0 0 178 58" fill="none" xmlns="http://www.w3.org/2000/svg">
<path d="M0.25 10.4286C0.25 4.90572 4.72715 0.428558 10.25 0.428558H167.75C173.273 0.428558 177.75 4.90571 177.75 10.4286V48C177.75 53.5228 173.273 58 167.75 58H10.25C4.72715 58 0.25 53.5228 0.25 48V10.4286Z" fill="#0A1F32"/>
<path d="M55.3627 34L50.965 28.1321H49.5716V34H47.5964V20.9091H49.5716V26.4382H50.2172L55.1646 20.9091H57.5744L52.3393 26.7706L57.7726 34H55.3627ZM62.8638 34.1982C61.9434 34.1982 61.1401 33.9872 60.454 33.5653C59.7679 33.1435 59.2353 32.5533 58.856 31.7947C58.4767 31.0362 58.2871 30.1499 58.2871 29.1357C58.2871 28.1172 58.4767 27.2266 58.856 26.4638C59.2353 25.701 59.7679 25.1087 60.454 24.6868C61.1401 24.2649 61.9434 24.054 62.8638 24.054C63.7843 24.054 64.5875 24.2649 65.2736 24.6868C65.9597 25.1087 66.4924 25.701 66.8716 26.4638C67.2509 27.2266 67.4405 28.1172 67.4405 29.1357C67.4405 30.1499 67.2509 31.0362 66.8716 31.7947C66.4924 32.5533 65.9597 33.1435 65.2736 33.5653C64.5875 33.9872 63.7843 34.1982 62.8638 34.1982ZM62.8702 32.5938C63.4668 32.5938 63.9611 32.4361 64.3532 32.1207C64.7452 31.8054 65.035 31.3857 65.2225 30.8615C65.4142 30.3374 65.5101 29.7599 65.5101 29.1293C65.5101 28.5028 65.4142 27.9276 65.2225 27.4034C65.035 26.875 64.7452 26.451 64.3532 26.1314C63.9611 25.8118 63.4668 25.652 62.8702 25.652C62.2694 25.652 61.7708 25.8118 61.3745 26.1314C60.9824 26.451 60.6905 26.875 60.4988 27.4034C60.3113 27.9276 60.2175 28.5028 60.2175 29.1293C60.2175 29.7599 60.3113 30.3374 60.4988 30.8615C60.6905 31.3857 60.9824 31.8054 61.3745 32.1207C61.7708 32.4361 62.2694 32.5938 62.8702 32.5938ZM76.228 28.2663V29.9219H70.9098V28.2663H76.228ZM71.4467 24.1818V34H69.5739V24.1818H71.4467ZM77.5639 24.1818V34H75.6974V24.1818H77.5639ZM78.9031 25.831V24.1818H87.1871V25.831H83.9847V34H82.1183V25.831H78.9031ZM91.6088 34.2173C90.9867 34.2173 90.4242 34.1023 89.9213 33.8722C89.4185 33.6378 89.0201 33.299 88.726 32.8558C88.4363 32.4126 88.2914 31.8693 88.2914 31.2259C88.2914 30.6719 88.3979 30.2159 88.611 29.858C88.824 29.5 89.1117 29.2166 89.4739 29.0078C89.8361 28.799 90.2409 28.6413 90.6884 28.5348C91.1358 28.4283 91.5918 28.3473 92.0563 28.2919C92.6444 28.2237 93.1216 28.1683 93.4881 28.1257C93.8546 28.0788 94.1209 28.0043 94.2871 27.902C94.4533 27.7997 94.5364 27.6335 94.5364 27.4034V27.3587C94.5364 26.8004 94.3787 26.3679 94.0634 26.0611C93.7523 25.7543 93.2878 25.6009 92.6699 25.6009C92.0265 25.6009 91.5194 25.7436 91.1486 26.0291C90.7821 26.3104 90.5286 26.6236 90.388 26.9688L88.5918 26.5597C88.8049 25.9631 89.1159 25.4815 89.525 25.1151C89.9384 24.7443 90.4135 24.4759 90.9505 24.3097C91.4874 24.1392 92.052 24.054 92.6444 24.054C93.0364 24.054 93.4519 24.1009 93.8908 24.1946C94.334 24.2841 94.7473 24.4503 95.1309 24.6932C95.5186 24.9361 95.8361 25.2834 96.0833 25.7351C96.3304 26.1825 96.454 26.7642 96.454 27.4801V34H94.5875V32.6577H94.5108C94.3873 32.9048 94.2019 33.1477 93.9547 33.3864C93.7076 33.625 93.3901 33.8232 93.0023 33.9808C92.6145 34.1385 92.15 34.2173 91.6088 34.2173ZM92.0243 32.6832C92.5527 32.6832 93.0044 32.5788 93.3794 32.37C93.7587 32.1612 94.0463 31.8885 94.2424 31.5518C94.4426 31.2109 94.5428 30.8466 94.5428 30.4588V29.1932C94.4746 29.2614 94.3425 29.3253 94.1465 29.3849C93.9547 29.4403 93.7353 29.4893 93.4881 29.532C93.2409 29.5703 93.0002 29.6065 92.7658 29.6406C92.5314 29.6705 92.3354 29.696 92.1777 29.7173C91.807 29.7642 91.4682 29.843 91.1614 29.9538C90.8588 30.0646 90.6159 30.2244 90.4327 30.4332C90.2537 30.6378 90.1642 30.9105 90.1642 31.2514C90.1642 31.7244 90.339 32.0824 90.6884 32.3253C91.0378 32.5639 91.4831 32.6832 92.0243 32.6832ZM98.9996 34V24.1818H100.911V28.2983H101.831L105.072 24.1818H107.437L103.634 28.9567L107.482 34H105.11L102.151 30.0753H100.911V34H98.9996ZM108.417 25.831V24.1818H116.701V25.831H113.498V34H111.632V25.831H108.417ZM120.161 27.5568H123.011C124.213 27.5568 125.138 27.8551 125.786 28.4517C126.433 29.0483 126.757 29.8175 126.757 30.7592C126.757 31.3729 126.612 31.9247 126.322 32.4148C126.033 32.9048 125.609 33.2926 125.05 33.5781C124.492 33.8594 123.813 34 123.011 34H118.722V24.1818H120.595V32.3509H123.011C123.561 32.3509 124.013 32.2081 124.366 31.9226C124.72 31.6328 124.897 31.2642 124.897 30.8168C124.897 30.3437 124.72 29.9581 124.366 29.6598C124.013 29.3572 123.561 29.206 123.011 29.206H120.161V27.5568ZM128.151 34V24.1818H130.062V34H128.151Z" fill="white"/>
</svg>
